<svg viewBox="48.5 -3 299 446.5" width="299" height="446.5" version="1.1" baseProfile="full" xmlns="http://www.w3.org/2000/svg" class="js-draw--autoresize"><style id="js-draw-style-sheet">path{stroke-linecap:round;stroke-linejoin:round;}text{white-space:pre;}</style><path d="M213,151q-24,6 -25,6q-50,17 -66,41q-20,31 -7,51q3,5 28,14q11,4 47,4q4-1 8-3q-7,12 -22,29q-44,50 -44,50q-37,49 -22,49q2,0 62-22q29-7 53-12q14-3 30-19q2-2 -6-4q-1,0 -5,1q3-5 9-12q8-28 10-53q0-4 12-39q6-18 18-18q17-2 30-5q17-3 15-9q-17-11 -35-16q-8-2 -11-15q7-13 18-22q4-4 4-23q0-19 -50-7q-19,6 -35,11" fill="none" stroke="#803380" stroke-width="4"></path><path d="M276,148q12-5 21-5q8,0 26-6" fill="none" stroke="#803380" stroke-width="4"></path><path d="M239,226q10,27 14,31q8,8 27,8q0,0 2-1" fill="none" stroke="#803380" stroke-width="5"></path><path d="M220,122Q222,96 227,85Q241,53 243,50Q260,29 292,18Q308,13 318,6" fill="none" stroke="#803380" stroke-width="3"></path><path d="M212,144q-39-50 -52-59q-36-26 -109,11" fill="none" stroke="#803380" stroke-width="5"></path><path d="M223,131Q205,94 200,67Q198,55 214,0" fill="none" stroke="#803380" stroke-width="6"></path><path d="M241,291q-13,1 -15,3q-9,8 5,13q13,7 24,13q2,1 14,0q15-5 27-11q0,0 2-1" fill="none" stroke="#803380" stroke-width="4"></path><path d="M228,289q34,3 38,7q9,9 15,9" fill="none" stroke="#803380" stroke-width="3"></path><path d="M279,244q21.4-3.3 39-6q28-4 28,10q0,5 -18,18q-15,8 -27,14q-15,3 -28,3q-9,1 -17,2" fill="none" stroke="#803380" stroke-width="3"></path><path d="M133,382q-2,20 -6,32q-4,12 -8,21q-2,6 21,6q11,0 26-10q4-8 5-15q1-5 -15-5q-20,0 -11-6q5-3 10-18q1-4 0-22q0-1 -1-2" fill="none" stroke="#803380" stroke-width="5"></path><path d="M209,360q-4.3,43.3 -7,50q-4,10 -3,12q16,6 32,6q19,0 23-8q6-13 -6-17q-16-5 -16-7q0-25 1-45" fill="none" stroke="#803380" stroke-width="3"></path><path d="M195,210q0-11 -3-14q-8-8 -22-3q-11,4 2,23q6,9 21,9" fill="none" stroke="#803380" stroke-width="4"></path></svg>